<?xml version="1.0" encoding="iso-8859-1"?>
<!-- Generator: Adobe Illustrator 18.1.1, SVG Export Plug-In . SVG Version: 6.00 Build 0)  -->
<svg version="1.1" id="Capa_1" xmlns="http://www.w3.org/2000/svg" xmlns:xlink="http://www.w3.org/1999/xlink" x="0px" y="0px"
	 viewBox="0 0 52.841 52.841" style="enable-background:new 0 0 52.841 52.841;" xml:space="preserve">
<g>
	<g>
		<path style="fill:#010002;" d="M46.029,48.318H2c-1.104,0-2,0.896-2,2s0.896,2,2,2h44.029c1.104,0,2-0.896,2-2
			S47.134,48.318,46.029,48.318z"/>
		<path style="fill:#010002;" d="M52.69,27.556c-0.209-0.508-0.617-0.906-1.129-1.104l-4.231-1.634
			c-1.546-0.597-2.766-1.212-2.724-1.375c0.042-0.164,0.116-1.497-0.804-2.417c-0.543-0.543-1.293-0.879-2.121-0.879H6.348
			c-0.828,0-1.578,0.336-2.121,0.879c-0.92,0.92-0.487,3.406-0.004,4.99l4.25,13.933c0.483,1.584,0.834,4.07,1.754,4.99
			c0.543,0.543,1.293,0.879,2.121,0.879h24.334c0.828,0,1.578-0.336,2.121-0.879c0.92-0.92,0.969-2.473,1.078-2.906
			c0.11-0.435,1.543-0.826,3.199-0.876l3.009-0.09c0.767-0.022,1.453-0.482,1.766-1.182l4.811-10.75
			C52.89,28.634,52.899,28.063,52.69,27.556z M46.928,32.163l-0.986,2.205c-0.677,1.513-2.033,2.763-3.03,2.792
			c-0.997,0.03-1.474-1.247-1.065-2.853l0.954-3.757c0.408-1.605,1.772-2.509,3.046-2.017C47.12,29.026,47.605,30.65,46.928,32.163z
			"/>
	</g>
	<path style="fill:#010002;" d="M17.943,17.765c-0.389,0-0.776-0.153-1.067-0.459c-0.893-0.94-2.075-3.465-0.154-6.296
		c0.89-1.312,1.53-3.825,1.06-5.759c-0.223-0.916-0.664-1.558-1.311-1.91c-0.728-0.396-0.998-1.306-0.603-2.034
		c0.396-0.728,1.306-0.998,2.034-0.603c1.403,0.762,2.37,2.089,2.794,3.837c0.7,2.877-0.221,6.279-1.492,8.152
		c-0.961,1.417-0.345,2.324-0.133,2.568c0.534,0.616,0.491,1.559-0.112,2.107C18.668,17.633,18.305,17.765,17.943,17.765z"/>
	<path style="fill:#010002;" d="M27.411,17.765c-0.389,0-0.776-0.153-1.067-0.459c-0.893-0.94-2.075-3.465-0.154-6.296
		c0.89-1.312,1.53-3.825,1.059-5.759c-0.223-0.916-0.664-1.558-1.311-1.909c-0.728-0.396-0.998-1.306-0.603-2.034
		c0.396-0.728,1.305-0.998,2.034-0.603c1.403,0.762,2.37,2.089,2.794,3.837c0.7,2.877-0.221,6.279-1.492,8.153
		c-0.961,1.417-0.345,2.324-0.133,2.568c0.534,0.616,0.491,1.559-0.112,2.107C28.136,17.633,27.773,17.765,27.411,17.765z"/>
</g>
<g>
</g>
<g>
</g>
<g>
</g>
<g>
</g>
<g>
</g>
<g>
</g>
<g>
</g>
<g>
</g>
<g>
</g>
<g>
</g>
<g>
</g>
<g>
</g>
<g>
</g>
<g>
</g>
<g>
</g>
</svg>
