<?xml version="1.0" encoding="iso-8859-1"?>
<!-- Generator: Adobe Illustrator 18.1.1, SVG Export Plug-In . SVG Version: 6.00 Build 0)  -->
<svg version="1.1" id="Capa_1" xmlns="http://www.w3.org/2000/svg" xmlns:xlink="http://www.w3.org/1999/xlink" x="0px" y="0px"
	 viewBox="0 0 266.001 266.001" style="enable-background:new 0 0 266.001 266.001;" xml:space="preserve">
<g>
	<path style="fill:#030104;" d="M143.509,67.754l3.712-9.281l4.338,27.828c0,0,11.122,1.245,23.498-3.699
		c12.372-4.951,16.075-11.752,16.075-17.327c0-11.75-16.697-21.645-16.697-21.645s45.148,11.75,69.271,44.529
		c24.117,32.776,22.263,72.983,22.263,72.983s-28.872-34.024-51.948-17.937c-20.408,14.222-12.992,58.128-12.992,58.128
		s-16.697-35.248-35.248-35.248c-25.361,0-32.78,56.287-32.78,56.287s-7.418-56.287-32.771-56.287
		c-18.559,0-35.256,35.248-35.256,35.248s7.416-43.906-12.989-58.128c-23.08-16.087-51.952,17.937-51.952,17.937
		s-1.85-40.207,22.265-72.983C46.418,55.383,91.569,43.63,91.569,43.63s-16.702,9.895-16.702,21.645
		c0,5.575,3.712,12.372,16.075,17.327c12.374,4.944,23.506,3.699,23.506,3.699l4.33-27.828l3.712,9.281L143.509,67.754
		L143.509,67.754z"/>
</g>
<g>
</g>
<g>
</g>
<g>
</g>
<g>
</g>
<g>
</g>
<g>
</g>
<g>
</g>
<g>
</g>
<g>
</g>
<g>
</g>
<g>
</g>
<g>
</g>
<g>
</g>
<g>
</g>
<g>
</g>
</svg>
