<?xml version="1.0" encoding="iso-8859-1"?>
<!-- Generator: Adobe Illustrator 16.0.0, SVG Export Plug-In . SVG Version: 6.00 Build 0)  -->
<!DOCTYPE svg PUBLIC "-//W3C//DTD SVG 1.1//EN" "http://www.w3.org/Graphics/SVG/1.1/DTD/svg11.dtd">
<svg version="1.1" id="Capa_1" xmlns="http://www.w3.org/2000/svg" xmlns:xlink="http://www.w3.org/1999/xlink" x="0px" y="0px"
	 width="175.697px" height="175.698px" viewBox="0 0 175.697 175.698" style="enable-background:new 0 0 175.697 175.698;"
	 xml:space="preserve">
<g>
	<path d="M144.551,148.655c3.446,0,6.235-2.789,6.235-6.235c0-3.44-2.789-6.235-6.235-6.235H31.195c-3.45,0-6.235,2.795-6.235,6.235
		c0,3.446,2.786,6.235,6.235,6.235h2.119v14.029h-2.119c-3.45,0-6.235,2.795-6.235,6.235c0,3.446,2.786,6.235,6.235,6.235h113.355
		c3.446,0,6.235-2.789,6.235-6.235c0-3.44-2.789-6.235-6.235-6.235h-2.119v-14.029H144.551z M67.608,162.684H39.549v-14.029h28.059
		V162.684z M101.902,162.684H73.844v-14.029h28.059V162.684z M136.196,162.684h-28.059v-14.029h28.059V162.684z M70.345,18.064
		c0-9.661,7.871-17.521,17.528-17.521s17.524,7.861,17.524,17.521c0,9.663-7.867,17.521-17.524,17.521S70.345,27.721,70.345,18.064z
		 M172.871,24.117c-0.365-0.125-0.725-0.235-1.114-0.335c-30.5-7.627-62.188,5.307-81.563,32.272
		c-6.236,10.595-10.55,24.393-10.882,42.438c-0.03,1.705-1.428,3.062-3.118,3.062c-0.018,0-0.037,0-0.055,0
		c-1.72-0.03-3.093-1.449-3.063-3.172c0.332-18.496,4.695-32.882,11.067-44.092c-15.464-20.311-38.59-32.656-62.73-32.656
		c-5.858,0-11.731,0.725-17.431,2.152c-0.386,0.101-0.761,0.21-1.702,0.518c-1.62,0.454-2.594,2.119-2.189,3.76l24.487,97.944
		c0.356,1.388,1.596,2.362,3.023,2.362h1.224h48.491h70.802c1.425,0,2.679-0.975,3.014-2.362l24.491-97.95
		C176.056,26.418,174.497,24.573,172.871,24.117z M70.75,61.784c-0.554,0.393-1.178,0.594-1.82,0.594
		c-0.965,0-1.934-0.45-2.524-1.297c-16.575-23.032-51.454-22.448-51.84-22.472c-1.702,0.149-3.154-1.322-3.193-3.042
		c-0.037-1.717,1.315-3.151,3.044-3.193c1.559,0,38.578-0.625,57.046,25.072C72.467,58.836,72.147,60.782,70.75,61.784z"/>
</g>
<g>
</g>
<g>
</g>
<g>
</g>
<g>
</g>
<g>
</g>
<g>
</g>
<g>
</g>
<g>
</g>
<g>
</g>
<g>
</g>
<g>
</g>
<g>
</g>
<g>
</g>
<g>
</g>
<g>
</g>
</svg>
