<?xml version="1.0" encoding="iso-8859-1"?>
<!-- Generator: Adobe Illustrator 18.1.1, SVG Export Plug-In . SVG Version: 6.00 Build 0)  -->
<svg version="1.1" id="Capa_1" xmlns="http://www.w3.org/2000/svg" xmlns:xlink="http://www.w3.org/1999/xlink" x="0px" y="0px"
	 viewBox="0 0 524.745 524.745" style="enable-background:new 0 0 524.745 524.745;" xml:space="preserve">
<g>
	<g>
		<path style="fill:#010002;" d="M200.813,238.465h-92.039c-1.195-3.983-1.793-7.969-1.793-11.953
			c0-13.148,4.681-24.404,14.045-33.768c9.364-9.363,20.62-14.045,33.768-14.045s24.404,4.681,33.767,14.045
			s14.045,20.62,14.045,33.768C202.606,230.496,202.008,234.481,200.813,238.465z M124.313,319.746
			c7.969,23.109,19.424,42.932,34.365,59.467c14.941,16.535,31.178,28.787,48.709,36.756c17.531,7.972,36.158,11.953,55.881,11.953
			s38.35-3.785,55.881-11.354c17.528-7.57,33.565-19.623,48.108-36.158s25.603-36.756,33.17-60.662l-176.905-0.002L124.313,319.746
			L124.313,319.746z M369.95,178.699c-13.148,0-24.404,4.682-33.771,14.045c-9.362,9.363-14.045,20.619-14.045,33.768
			c0,3.984,0.601,7.97,1.793,11.953h92.039c1.195-3.983,1.793-7.969,1.793-11.953c0-13.147-4.682-24.403-14.045-33.768
			C394.355,183.38,383.099,178.699,369.95,178.699z M524.744,262.371c0,35.461-6.971,69.328-20.917,101.601
			c-13.947,32.275-32.672,60.164-56.18,83.675c-23.511,23.508-51.399,42.233-83.675,56.18
			c-32.272,13.944-66.141,20.918-101.602,20.918s-69.327-6.97-101.601-20.917s-60.164-32.672-83.672-56.18
			c-23.508-23.511-42.235-51.399-56.18-83.675C6.974,331.699,0.001,297.832,0.001,262.371s6.971-69.427,20.917-101.9
			s32.672-60.363,56.18-83.672s51.398-41.936,83.672-55.881C193.044,6.973,226.911,0,262.372,0s69.327,6.973,101.601,20.918
			c32.275,13.945,60.164,32.572,83.675,55.881c23.508,23.309,42.233,51.2,56.18,83.672
			C517.773,192.943,524.744,226.91,524.744,262.371z M484.103,262.371c0-40.242-9.86-77.395-29.582-111.462
			c-19.726-34.067-46.618-60.961-80.687-80.684c-34.065-19.723-71.22-29.584-111.462-29.584s-77.395,9.86-111.462,29.583
			s-60.961,46.617-80.684,80.684s-29.584,71.221-29.584,111.463s9.86,77.393,29.583,111.461s46.617,60.961,80.684,80.686
			c34.067,19.723,71.221,29.584,111.463,29.584s77.395-9.86,111.461-29.582c34.068-19.726,60.961-46.618,80.687-80.687
			C474.241,339.768,484.103,302.613,484.103,262.371z"/>
	</g>
</g>
<g>
</g>
<g>
</g>
<g>
</g>
<g>
</g>
<g>
</g>
<g>
</g>
<g>
</g>
<g>
</g>
<g>
</g>
<g>
</g>
<g>
</g>
<g>
</g>
<g>
</g>
<g>
</g>
<g>
</g>
</svg>
