<?xml version="1.0" encoding="iso-8859-1"?>
<!-- Generator: Adobe Illustrator 18.1.1, SVG Export Plug-In . SVG Version: 6.00 Build 0)  -->
<svg version="1.1" id="Capa_1" xmlns="http://www.w3.org/2000/svg" xmlns:xlink="http://www.w3.org/1999/xlink" x="0px" y="0px"
	 viewBox="0 0 369.946 369.946" style="enable-background:new 0 0 369.946 369.946;" xml:space="preserve">
<g>
	<g>
		<path style="fill:#010002;" d="M184.973,0C82.975,0,0,82.975,0,184.973s82.975,184.973,184.973,184.973
			s184.973-82.975,184.973-184.973S286.971,0,184.973,0z M248.622,111.378c14.261,0,25.854,11.6,25.854,25.86
			s-11.594,25.854-25.854,25.854s-25.854-11.594-25.854-25.854S234.361,111.378,248.622,111.378z M121.33,111.378
			c14.261,0,25.854,11.6,25.854,25.86s-11.594,25.854-25.854,25.854s-25.86-11.594-25.86-25.854S107.07,111.378,121.33,111.378z
			 M184.973,312.264c-70.188,0-127.291-57.103-127.291-127.291h11.934c0,63.607,51.751,115.357,115.357,115.357
			c63.613,0,115.363-51.751,115.363-115.357h11.934C312.27,255.161,255.167,312.264,184.973,312.264z"/>
		<circle style="fill:#010002;" cx="248.622" cy="137.238" r="13.921"/>
		<circle style="fill:#010002;" cx="121.33" cy="137.238" r="13.921"/>
	</g>
</g>
<g>
</g>
<g>
</g>
<g>
</g>
<g>
</g>
<g>
</g>
<g>
</g>
<g>
</g>
<g>
</g>
<g>
</g>
<g>
</g>
<g>
</g>
<g>
</g>
<g>
</g>
<g>
</g>
<g>
</g>
</svg>
