<?xml version="1.0" encoding="iso-8859-1"?>
<!-- Generator: Adobe Illustrator 16.0.0, SVG Export Plug-In . SVG Version: 6.00 Build 0)  -->
<!DOCTYPE svg PUBLIC "-//W3C//DTD SVG 1.1//EN" "http://www.w3.org/Graphics/SVG/1.1/DTD/svg11.dtd">
<svg version="1.1" id="Capa_1" xmlns="http://www.w3.org/2000/svg" xmlns:xlink="http://www.w3.org/1999/xlink" x="0px" y="0px"
	 width="450.776px" height="450.776px" viewBox="0 0 450.776 450.776" style="enable-background:new 0 0 450.776 450.776;"
	 xml:space="preserve">
<g>
	<path d="M8.073,230.441c1.791,0,3.596-0.592,5.095-1.815l40.664-33.234V397.84c0,4.458,3.608,8.063,8.063,8.063h322.991
		c4.457,0,8.062-3.605,8.062-8.063v-202.5l44.941,33.505c1.444,1.083,3.133,1.597,4.813,1.597c2.456,0,4.887-1.124,6.474-3.248
		c2.659-3.571,1.927-8.623-1.645-11.281l-55.779-41.592c-1.066-1.743-2.772-3.031-4.793-3.575l-166.727-124.3
		c-0.155-0.113-0.329-0.189-0.483-0.289c-0.247-0.158-0.488-0.323-0.753-0.452c-0.236-0.121-0.483-0.205-0.725-0.297
		c-0.236-0.091-0.472-0.188-0.722-0.257c-0.262-0.07-0.53-0.113-0.801-0.157c-0.242-0.042-0.482-0.087-0.729-0.107
		c-0.266-0.021-0.523-0.011-0.785-0.005c-0.26,0.005-0.512,0.005-0.769,0.037c-0.252,0.029-0.501,0.086-0.748,0.141
		c-0.257,0.053-0.514,0.107-0.77,0.189c-0.252,0.079-0.493,0.192-0.74,0.299c-0.231,0.102-0.461,0.194-0.682,0.318
		c-0.265,0.144-0.512,0.323-0.759,0.501c-0.153,0.105-0.312,0.182-0.452,0.3l-66.074,54V80.025c0-4.457-3.606-8.063-8.062-8.063
		H89.366c-4.457,0-8.063,3.606-8.063,8.063v72.09L2.96,216.138c-3.452,2.815-3.956,7.895-1.139,11.344
		C3.417,229.435,5.735,230.441,8.073,230.441z M97.429,88.083h30.688v25.759l-30.688,25.081V88.083z"/>
</g>
<g>
</g>
<g>
</g>
<g>
</g>
<g>
</g>
<g>
</g>
<g>
</g>
<g>
</g>
<g>
</g>
<g>
</g>
<g>
</g>
<g>
</g>
<g>
</g>
<g>
</g>
<g>
</g>
<g>
</g>
</svg>
