<?xml version="1.0" encoding="iso-8859-1"?>
<!-- Generator: Adobe Illustrator 16.0.0, SVG Export Plug-In . SVG Version: 6.00 Build 0)  -->
<!DOCTYPE svg PUBLIC "-//W3C//DTD SVG 1.1//EN" "http://www.w3.org/Graphics/SVG/1.1/DTD/svg11.dtd">
<svg version="1.1" id="Capa_1" xmlns="http://www.w3.org/2000/svg" xmlns:xlink="http://www.w3.org/1999/xlink" x="0px" y="0px"
	 width="366.383px" height="366.383px" viewBox="0 0 366.383 366.383" style="enable-background:new 0 0 366.383 366.383;"
	 xml:space="preserve">
<g>
	<path d="M81.23,344.913c44.863,0,81.232-18.182,81.232-40.599c0-0.629-0.142-1.25-0.18-1.872l0.18-0.016l-9.349-226.804h148.212
		c0.337,2.927,0.714,6.089,1.131,9.489c4.167,35.125,11.465,96.609,10.042,181.208c-8.849-1.672-18.41-2.625-28.429-2.625
		c-44.847,0-81.227,18.186-81.227,40.619c0,22.417,36.38,40.599,81.227,40.599c44.863,0,81.242-18.182,81.242-40.599
		c0-0.982-0.164-1.948-0.292-2.905c4.7-107.263-3.879-181.314-8.792-222.679c-0.922-7.717-1.688-14.145-2.164-19.258
		c-2.016-21.306-20.43-38.002-41.942-38.002H139.965c-21.746,0-39.976,16.989-41.513,38.673l-0.112,1.499l8.292,204.116
		c-7.999-1.311-16.517-2.063-25.396-2.063C36.377,263.695,0,281.881,0,304.314C-0.008,326.731,36.369,344.913,81.23,344.913z"/>
</g>
<g>
</g>
<g>
</g>
<g>
</g>
<g>
</g>
<g>
</g>
<g>
</g>
<g>
</g>
<g>
</g>
<g>
</g>
<g>
</g>
<g>
</g>
<g>
</g>
<g>
</g>
<g>
</g>
<g>
</g>
</svg>
