<?xml version="1.0" encoding="iso-8859-1"?>
<!-- Generator: Adobe Illustrator 18.1.1, SVG Export Plug-In . SVG Version: 6.00 Build 0)  -->
<svg version="1.1" id="Capa_1" xmlns="http://www.w3.org/2000/svg" xmlns:xlink="http://www.w3.org/1999/xlink" x="0px" y="0px"
	 viewBox="0 0 14.996 14.996" style="enable-background:new 0 0 14.996 14.996;" xml:space="preserve">
<g>
	<g>
		<path style="fill:#030104;" d="M3.992,6.496C2.459,6.496,1.061,7.071,0,8.017c1.066,0.715,1.971,1.651,2.647,2.744
			c0.585-0.172,1.204-0.265,1.845-0.265c2.269,0,4.267,1.163,5.43,2.925c0.046-0.302,0.07-0.61,0.07-0.925
			C9.992,9.184,7.306,6.496,3.992,6.496z"/>
		<path style="fill:#030104;" d="M3.992,5.496c0.553,0,1-0.444,1-1.01v-1.98c0-0.558-0.444-1.01-1-1.01c-0.553,0-1,0.444-1,1.01
			v1.98C2.992,5.044,3.436,5.496,3.992,5.496z"/>
		<path style="fill:#030104;" d="M11.773,4.718c-0.391-0.39-1.021-0.393-1.42,0.007L8.951,6.127C8.556,6.52,8.552,7.154,8.945,7.547
			c0.391,0.39,1.021,0.393,1.421-0.007l1.401-1.401C12.162,5.745,12.167,5.112,11.773,4.718z"/>
		<path style="fill:#030104;" d="M13.986,11.5h-1.98c-0.558,0-1.01,0.443-1.01,1c0,0.553,0.443,1,1.01,1h1.98
			c0.558,0,1.01-0.443,1.01-1C14.996,11.947,14.552,11.5,13.986,11.5z"/>
	</g>
</g>
<g>
</g>
<g>
</g>
<g>
</g>
<g>
</g>
<g>
</g>
<g>
</g>
<g>
</g>
<g>
</g>
<g>
</g>
<g>
</g>
<g>
</g>
<g>
</g>
<g>
</g>
<g>
</g>
<g>
</g>
</svg>
